PathFileType	4	(X/Y/Z)	/Users/visionmauri/2_5_3_f_1_Sports2D/2_5_3_f_1_Sports2D_m_person00.trc
DataRate	CameraRate	NumFrames	NumMarkers	Units	OrigDataRate	OrigDataStartFrame	OrigNumFrames
30.0	30.0	9	22	m	30.0	127	341
Frame#	Time	Hip			RHip			RKnee			RAnkle			RBigToe			RSmallToe			RHeel			LHip			LKnee			LAnkle			LBigToe			LSmallToe			LHeel			Neck			Head			Nose			RShoulder			RElbow			RWrist			LShoulder			LElbow			LWrist			
		X1	Y1	Z1	X2	Y2	Z2	X3	Y3	Z3	X4	Y4	Z4	X5	Y5	Z5	X6	Y6	Z6	X7	Y7	Z7	X8	Y8	Z8	X9	Y9	Z9	X10	Y10	Z10	X11	Y11	Z11	X12	Y12	Z12	X13	Y13	Z13	X14	Y14	Z14	X15	Y15	Z15	X16	Y16	Z16	X17	Y17	Z17	X18	Y18	Z18	X19	Y19	Z19	X20	Y20	Z20	X21	Y21	Z21	X22	Y22	Z22
127	4.2457843137254905	1.1718499185252942	0.889069543359227	0.0301	1.2210455537852276	0.8819016956040109	0.0301	1.1345873380316829	0.5626347298612188	0.129	1.1481236994562234	0.2367673151489638	0.023	0.9784360857594736	0.21513639196849835	0.2179	1.0100204266681194	0.2186029996953256	0.1804	1.1644257246611425	0.18097183606025655	-0.0119	1.1257319333630458	0.8780523245475667	0.0301	1.1000391167658097	0.5510964213648222	0.129	1.1378054406576799	0.22671432237586112	0.023	0.9493046080713966	0.20071696727620242	0.2179	0.9605197209076267	0.18455583612138224	0.1804	1.1599558994553143	0.1701595452175944	-0.0119	1.0800568761438574	1.32193992585755	0.0008	0.9624059808168844	1.501420917407852	0.0655	0.9734570752893399	1.3486498883742284	0.1076	1.2084517907697427	1.2819882340586206	-0.01275	1.3356182702397146	1.0779341759541645	0.0702	1.3311650862806406	0.8904564403945835	0.1076	1.00224550708174	1.2851398423717328	-0.01275	0.9586156429155545	1.0549050012165313	0.0702	0.858653400029977	0.9069138849136159	0.1076
128	4.27921568627451	1.1681891354605298	0.8863060165835851	0.0301	1.2182540634881778	0.8788866261709659	0.0301	1.1341987426025135	0.5611759414012605	0.129	1.1464998492978957	0.23765840496076382	0.023	0.9791543770233028	0.21633410256775568	0.2179	1.0080828291913284	0.219529158514135	0.1804	1.1628141836144996	0.18089474554819054	-0.0119	1.127843753806185	0.8759525781579517	0.0301	1.0980084599219093	0.5524208429653302	0.129	1.1334295824448593	0.22727376164784566	0.023	0.9390372397540845	0.20174966580142076	0.2179	0.9491505033560393	0.18493786605407767	0.1804	1.15942596810219	0.16905317708877904	-0.0119	1.0813452607692267	1.3223121325138902	0.0008	0.9619174450239848	1.5017931070010402	0.0655	0.9740306436401898	1.3482043052181905	0.1076	1.2045078770821283	1.2819723478834635	-0.01275	1.32419591643092	1.0708693091374406	0.0702	1.3096730093312121	0.8877824118688001	0.1076	1.0100422180263053	1.2851785555874713	-0.01275	0.9633479507223883	1.0553817813284232	0.0702	0.8608842992314438	0.9076037128997878	0.1076
129	4.312647058823529	1.1649496825720265	0.8808707891440771	0.0301	1.2149091406307737	0.87347042171981	0.0301	1.1338744412943043	0.5561936104575628	0.129	1.1460088039739353	0.23555202931795244	0.023	0.9767546277148944	0.21460975711676458	0.2179	1.0075592545033492	0.2180733489948798	0.1804	1.162573006521602	0.17924503179685664	-0.0119	1.1295862353720842	0.8720503100152518	0.0301	1.0950462666023713	0.5528163553125407	0.129	1.1318996361016953	0.2270042484092836	0.023	0.9235479880520305	0.20333828720643676	0.2179	0.9302218147827799	0.18549339101507253	0.1804	1.155689109137629	0.1696405993717845	-0.0119	1.0825147617315383	1.3227363966222203	0.0008	0.9599188586341877	1.5017999133441693	0.0655	0.9727563423118449	1.3477434544999647	0.1076	1.2015767004176052	1.28192504792997	-0.01275	1.3143309431636767	1.0634479940973947	0.0702	1.284222525227811	0.8858241243116576	0.1076	1.0188542866705355	1.2875610043250916	-0.01275	0.9694850673344356	1.0539513509112681	0.0702	0.8629620512629549	0.9070163494730608	0.1076
130	4.346078431372549	1.1629159265202293	0.876015303105303	0.0301	1.2118151369049739	0.8692652363599589	0.0301	1.1330289018766901	0.551196447783624	0.129	1.1464599951422407	0.2326186287758737	0.023	0.9647225014962447	0.2110494932813488	0.2179	1.0047118356718339	0.21434931672735102	0.1804	1.1628641384559364	0.17745721548602292	-0.0119	1.132116656009258	0.8688319859448225	0.0301	1.0942145247213386	0.5525595252652484	0.129	1.1351579017674134	0.22583680194907693	0.023	0.9117721211515254	0.20422626163722774	0.2179	0.9177125651981269	0.18577139979365284	0.1804	1.1546233935153818	0.17158598873780173	-0.0119	1.084298301160998	1.322919639684999	0.0008	0.9563201532020478	1.5018387214900708	0.0655	0.9699486955266768	1.3473523873115403	0.1076	1.1980194148351235	1.2823923672445992	-0.01275	1.3070661011852118	1.0602506976655113	0.0702	1.2511885534922733	0.8938570107672922	0.1076	1.028438494367453	1.2899726400196276	-0.01275	0.9790977986715342	1.0524276978125122	0.0702	0.8647356013163227	0.9067074789038719	0.1076
131	4.379509803921569	1.1619772599721185	0.8745790365779256	0.0301	1.2082253706699908	0.8690147199651863	0.0301	1.1314931130202546	0.5491024673369157	0.129	1.1469384172335753	0.2312539966351129	0.023	0.9432874504566092	0.2082600446567215	0.2179	0.9965915728174218	0.21067539127320714	0.1804	1.1624856466066082	0.17624203292792143	-0.0119	1.1383268172827956	0.8675664572164881	0.0301	1.0966788247849593	0.553239196999842	0.129	1.1296153789988808	0.2249430314372379	0.023	0.9055458220005149	0.20305375806697049	0.2179	0.9160034727303956	0.18397433406875466	0.1804	1.1574699024952642	0.1724591101282769	-0.0119	1.0868929213771537	1.3234236964889736	0.0008	0.953841458689243	1.5030906594589863	0.0655	0.9684868491308688	1.3483941100450567	0.1076	1.192965233445118	1.2848776103159447	-0.01275	1.3032259351282993	1.063650792334534	0.0702	1.2123776204202275	0.9193167866689663	0.1076	1.0382219340901127	1.2908364024307386	-0.01275	0.9909169882624617	1.052765798685004	0.0702	0.8666513857198986	0.9076449342607151	0.1076
132	4.412941176470588	1.1622681427020602	0.8758441817243299	0.0301	1.2032528546308183	0.8707447177266469	0.0301	1.1296614943654033	0.5490959617477944	0.129	1.1459254990557897	0.23106304826209048	0.023	0.926496059655932	0.20651423243911152	0.2179	0.9861258376914787	0.2088093280321311	0.1804	1.161552103202648	0.17596644472060852	-0.0119	1.1482648418994705	0.8670431119867119	0.0301	1.0985879285235893	0.5549248873908578	0.129	1.0939546191754173	0.22592916057148252	0.023	0.8978989885611846	0.20078882415004437	0.2179	0.9149667471043584	0.1813537741911909	0.1804	1.1465470455867541	0.17241143795703331	-0.0119	1.089162104741524	1.3249744028940937	0.0008	0.9543331828230427	1.504803969879276	0.0655	0.9691475187056382	1.3517566691269645	0.1076	1.1872210901433708	1.2890882478270391	-0.01275	1.3004314881799905	1.0689817985992422	0.0702	1.1795923174846428	0.949283184483587	0.1076	1.048808595710124	1.291318611242632	-0.01275	1.0031119176815895	1.0539287442220062	0.0702	0.8703690799937014	0.9087536637392892	0.1076
133	4.446372549019608	1.1622950172674689	0.8771193154367773	0.0301	1.1942878076401904	0.8707965783968991	0.0301	1.1283895142313742	0.5484951424167519	0.129	1.1433156630259396	0.22962896677588968	0.023	0.9332781224841281	0.20387217420845097	0.2179	0.9818217048692636	0.20762203631463863	0.1804	1.1605614550480543	0.1759440320207744	-0.0119	1.1583707497501134	0.8661490969888676	0.0301	1.095891393877804	0.5571226979875556	0.129	1.0365791745404884	0.22867116046650043	0.023	0.8834897059157166	0.19918762252866165	0.2179	0.9050122873908146	0.18066035222970517	0.1804	1.1038082770483866	0.1741021252835676	-0.0119	1.0899286574203506	1.3270256242235197	0.0008	0.9573909581062516	1.5057746133881666	0.0655	0.9695879927766426	1.3561315372509049	0.1076	1.1787487027025216	1.2917163332160284	-0.01275	1.287570860246915	1.0681714714437	0.0702	1.1630716293590848	0.9584562027419851	0.1076	1.0625419194790384	1.292793961089248	-0.01275	1.0163923766082585	1.0532115802411903	0.0702	0.8770264799762071	0.9089721356104108	0.1076
134	4.479803921568627	1.1589625011574691	0.8767040649509793	0.0301	1.1763156550576457	0.8690071693872194	0.0301	1.1279137355975577	0.5465914550557981	0.129	1.1419433701658421	0.22621228068041563	0.023	0.9663602858061566	0.19885222033563416	0.2179	0.9888329164827236	0.20489084997267598	0.1804	1.1601594816038148	0.1744637088907214	-0.0119	1.166126532924735	0.8650435149568254	0.0301	1.0903631608338193	0.5605747499637279	0.129	0.9946133900061874	0.2314327909790792	0.023	0.8651245594524875	0.19807924624274517	0.2179	0.8888945258975446	0.18162858011826705	0.1804	1.0450082309832929	0.1779065200230152	-0.0119	1.089164644624468	1.328179708696765	0.0008	0.9620209732710439	1.5075256069392673	0.0655	0.9685700175348613	1.3605013894438907	0.1076	1.1600997537527737	1.2895580102278081	-0.01275	1.2481563688163368	1.059474174557718	0.0702	1.1515804268200995	0.9402612414971369	0.1076	1.080408240147525	1.2941743468303857	-0.01275	1.0325184929823032	1.0488857892578094	0.0702	0.8863685347856363	0.9095330751500061	0.1076
135	4.5132352941176475	1.1518896821154774	0.8749063897217733	0.0301	1.1502536745326104	0.8678560835074128	0.0301	1.1274918981969666	0.5451709945127057	0.129	1.1439431318248887	0.2225900575000829	0.023	1.0039884434939437	0.1922082306291698	0.2179	1.000816826306206	0.20081899577016424	0.1804	1.16084188626326	0.17136499423506338	-0.0119	1.170885328493417	0.864267607127769	0.0301	1.086428716627249	0.5650411586017166	0.129	0.983362898825171	0.23296413166003133	0.023	0.8507847960300089	0.1968146683622458	0.2179	0.877501329342407	0.1825270895067563	0.1804	1.0050109538720438	0.18153008584608163	-0.0119	1.0882900492670997	1.3280332004341808	0.0008	0.9672920933989764	1.511744656853872	0.0655	0.96719679928686	1.3653589568430624	0.1076	1.1291699937537545	1.2829870359105127	-0.01275	1.180284513408542	1.0494977454015673	0.0702	1.1183042035681054	0.9157595402749829	0.1076	1.0992550454843684	1.2934897092874182	-0.01275	1.0525939897623096	1.0421192658310265	0.0702	0.8999972055853566	0.9130962027455063	0.1076
